<mxfile host="drawio-plugin" modified="2021-07-13T19:52:19.534Z" agent="5.0 (Windows NT 6.2; Win64; x64) AppleWebKit/537.36 (KHTML, like Gecko) Chrome/89.0.4389.114 Safari/537.36" etag="R74TBU7AA6Pz1y9qzksO" version="14.7.4" type="embed"><diagram id="prtHgNgQTEPvFCAcTncT" name="Page-1"><mxGraphModel dx="981" dy="527" grid="1" gridSize="10" guides="1" tooltips="1" connect="1" arrows="1" fold="1" page="1" pageScale="1" pageWidth="827" pageHeight="1169" math="0" shadow="0"><root><mxCell id="0"/><mxCell id="1" parent="0"/><mxCell id="_28B4jXfdEEOSbrgzBtu-1" value="Actor" style="shape=umlActor;verticalLabelPosition=bottom;verticalAlign=top;html=1;outlineConnect=0;" parent="1" vertex="1"><mxGeometry x="40" y="160" width="30" height="60" as="geometry"/></mxCell><mxCell id="_28B4jXfdEEOSbrgzBtu-2" value="Order Service" style="shape=process;whiteSpace=wrap;html=1;backgroundOutline=1;" parent="1" vertex="1"><mxGeometry x="440" y="100" width="160" height="60" as="geometry"/></mxCell><mxCell id="_28B4jXfdEEOSbrgzBtu-3" value="Photographer Service" style="shape=process;whiteSpace=wrap;html=1;backgroundOutline=1;" parent="1" vertex="1"><mxGeometry x="440" y="240" width="160" height="60" as="geometry"/></mxCell><mxCell id="_28B4jXfdEEOSbrgzBtu-7" value="" style="endArrow=classic;html=1;" parent="1" edge="1"><mxGeometry width="50" height="50" relative="1" as="geometry"><mxPoint x="70" y="190" as="sourcePoint"/><mxPoint x="200" y="130" as="targetPoint"/></mxGeometry></mxCell><mxCell id="_28B4jXfdEEOSbrgzBtu-8" value="" style="endArrow=classic;html=1;" parent="1" edge="1"><mxGeometry width="50" height="50" relative="1" as="geometry"><mxPoint x="70" y="190" as="sourcePoint"/><mxPoint x="200" y="250" as="targetPoint"/></mxGeometry></mxCell><mxCell id="_28B4jXfdEEOSbrgzBtu-9" value="&lt;font style=&quot;font-size: 18px&quot;&gt;&lt;b&gt;Software Design&lt;/b&gt;&lt;/font&gt;" style="text;html=1;align=center;verticalAlign=middle;resizable=0;points=[];autosize=1;strokeColor=none;" parent="1" vertex="1"><mxGeometry x="300" y="30" width="160" height="20" as="geometry"/></mxCell><mxCell id="_28B4jXfdEEOSbrgzBtu-10" value="Order Controller" style="ellipse;whiteSpace=wrap;html=1;" parent="1" vertex="1"><mxGeometry x="210" y="90" width="200" height="80" as="geometry"/></mxCell><mxCell id="_28B4jXfdEEOSbrgzBtu-11" value="Photographer Controller" style="ellipse;whiteSpace=wrap;html=1;" parent="1" vertex="1"><mxGeometry x="210" y="230" width="200" height="80" as="geometry"/></mxCell><mxCell id="_28B4jXfdEEOSbrgzBtu-12" value="&lt;font style=&quot;font-size: 18px&quot;&gt;&lt;b&gt;Database Design&lt;/b&gt;&lt;/font&gt;" style="text;html=1;align=center;verticalAlign=middle;resizable=0;points=[];autosize=1;strokeColor=none;" parent="1" vertex="1"><mxGeometry x="300" y="360" width="160" height="20" as="geometry"/></mxCell><mxCell id="_28B4jXfdEEOSbrgzBtu-13" value="&lt;span&gt;Order Database&lt;/span&gt;" style="shape=datastore;whiteSpace=wrap;html=1;" parent="1" vertex="1"><mxGeometry x="640" y="100" width="210" height="60" as="geometry"/></mxCell><mxCell id="_28B4jXfdEEOSbrgzBtu-14" value="Photographer Database" style="shape=datastore;whiteSpace=wrap;html=1;" parent="1" vertex="1"><mxGeometry x="640" y="240" width="210" height="60" as="geometry"/></mxCell><mxCell id="_28B4jXfdEEOSbrgzBtu-15" value="Order" style="shape=table;startSize=20;container=1;collapsible=1;childLayout=tableLayout;fixedRows=1;rowLines=0;fontStyle=1;align=center;resizeLast=1;" parent="1" vertex="1"><mxGeometry x="110" y="440" width="220" height="260" as="geometry"/></mxCell><mxCell id="_28B4jXfdEEOSbrgzBtu-16" value="" style="shape=partialRectangle;collapsible=0;dropTarget=0;pointerEvents=0;fillColor=none;top=0;left=0;bottom=1;right=0;points=[[0,0.5],[1,0.5]];portConstraint=eastwest;" parent="_28B4jXfdEEOSbrgzBtu-15" vertex="1"><mxGeometry y="20" width="220" height="30" as="geometry"/></mxCell><mxCell id="_28B4jXfdEEOSbrgzBtu-17" value="PK" style="shape=partialRectangle;connectable=0;fillColor=none;top=0;left=0;bottom=0;right=0;fontStyle=1;overflow=hidden;" parent="_28B4jXfdEEOSbrgzBtu-16" vertex="1"><mxGeometry width="100" height="30" as="geometry"/></mxCell><mxCell id="_28B4jXfdEEOSbrgzBtu-18" value="Id" style="shape=partialRectangle;connectable=0;fillColor=none;top=0;left=0;bottom=0;right=0;align=left;spacingLeft=6;fontStyle=5;overflow=hidden;" parent="_28B4jXfdEEOSbrgzBtu-16" vertex="1"><mxGeometry x="100" width="120" height="30" as="geometry"/></mxCell><mxCell id="_28B4jXfdEEOSbrgzBtu-19" value="" style="shape=partialRectangle;collapsible=0;dropTarget=0;pointerEvents=0;fillColor=none;top=0;left=0;bottom=0;right=0;points=[[0,0.5],[1,0.5]];portConstraint=eastwest;" parent="_28B4jXfdEEOSbrgzBtu-15" vertex="1"><mxGeometry y="50" width="220" height="30" as="geometry"/></mxCell><mxCell id="_28B4jXfdEEOSbrgzBtu-20" value="ContactData" style="shape=partialRectangle;connectable=0;fillColor=none;top=0;left=0;bottom=0;right=0;editable=1;overflow=hidden;" parent="_28B4jXfdEEOSbrgzBtu-19" vertex="1"><mxGeometry width="100" height="30" as="geometry"/></mxCell><mxCell id="_28B4jXfdEEOSbrgzBtu-21" value="contactData" style="shape=partialRectangle;connectable=0;fillColor=none;top=0;left=0;bottom=0;right=0;align=left;spacingLeft=6;overflow=hidden;" parent="_28B4jXfdEEOSbrgzBtu-19" vertex="1"><mxGeometry x="100" width="120" height="30" as="geometry"/></mxCell><mxCell id="_28B4jXfdEEOSbrgzBtu-22" value="" style="shape=partialRectangle;collapsible=0;dropTarget=0;pointerEvents=0;fillColor=none;top=0;left=0;bottom=0;right=0;points=[[0,0.5],[1,0.5]];portConstraint=eastwest;" parent="_28B4jXfdEEOSbrgzBtu-15" vertex="1"><mxGeometry y="80" width="220" height="30" as="geometry"/></mxCell><mxCell id="_28B4jXfdEEOSbrgzBtu-23" value="PhotoType" style="shape=partialRectangle;connectable=0;fillColor=none;top=0;left=0;bottom=0;right=0;editable=1;overflow=hidden;" parent="_28B4jXfdEEOSbrgzBtu-22" vertex="1"><mxGeometry width="100" height="30" as="geometry"/></mxCell><mxCell id="_28B4jXfdEEOSbrgzBtu-24" value="photoType" style="shape=partialRectangle;connectable=0;fillColor=none;top=0;left=0;bottom=0;right=0;align=left;spacingLeft=6;overflow=hidden;" parent="_28B4jXfdEEOSbrgzBtu-22" vertex="1"><mxGeometry x="100" width="120" height="30" as="geometry"/></mxCell><mxCell id="_28B4jXfdEEOSbrgzBtu-25" value="" style="shape=partialRectangle;collapsible=0;dropTarget=0;pointerEvents=0;fillColor=none;top=0;left=0;bottom=0;right=0;points=[[0,0.5],[1,0.5]];portConstraint=eastwest;" parent="_28B4jXfdEEOSbrgzBtu-15" vertex="1"><mxGeometry y="110" width="220" height="30" as="geometry"/></mxCell><mxCell id="_28B4jXfdEEOSbrgzBtu-26" value="OrderStatus" style="shape=partialRectangle;connectable=0;fillColor=none;top=0;left=0;bottom=0;right=0;editable=1;overflow=hidden;" parent="_28B4jXfdEEOSbrgzBtu-25" vertex="1"><mxGeometry width="100" height="30" as="geometry"/></mxCell><mxCell id="_28B4jXfdEEOSbrgzBtu-27" value="orderStatus" style="shape=partialRectangle;connectable=0;fillColor=none;top=0;left=0;bottom=0;right=0;align=left;spacingLeft=6;overflow=hidden;" parent="_28B4jXfdEEOSbrgzBtu-25" vertex="1"><mxGeometry x="100" width="120" height="30" as="geometry"/></mxCell><mxCell id="2" value="" style="shape=partialRectangle;collapsible=0;dropTarget=0;pointerEvents=0;fillColor=none;top=0;left=0;bottom=0;right=0;points=[[0,0.5],[1,0.5]];portConstraint=eastwest;" vertex="1" parent="_28B4jXfdEEOSbrgzBtu-15"><mxGeometry y="140" width="220" height="30" as="geometry"/></mxCell><mxCell id="3" value="String" style="shape=partialRectangle;connectable=0;fillColor=none;top=0;left=0;bottom=0;right=0;editable=1;overflow=hidden;" vertex="1" parent="2"><mxGeometry width="100" height="30" as="geometry"/></mxCell><mxCell id="4" value="title" style="shape=partialRectangle;connectable=0;fillColor=none;top=0;left=0;bottom=0;right=0;align=left;spacingLeft=6;overflow=hidden;" vertex="1" parent="2"><mxGeometry x="100" width="120" height="30" as="geometry"/></mxCell><mxCell id="5" value="" style="shape=partialRectangle;collapsible=0;dropTarget=0;pointerEvents=0;fillColor=none;top=0;left=0;bottom=0;right=0;points=[[0,0.5],[1,0.5]];portConstraint=eastwest;" vertex="1" parent="_28B4jXfdEEOSbrgzBtu-15"><mxGeometry y="170" width="220" height="30" as="geometry"/></mxCell><mxCell id="6" value="String" style="shape=partialRectangle;connectable=0;fillColor=none;top=0;left=0;bottom=0;right=0;editable=1;overflow=hidden;" vertex="1" parent="5"><mxGeometry width="100" height="30" as="geometry"/></mxCell><mxCell id="7" value="logisticInfo" style="shape=partialRectangle;connectable=0;fillColor=none;top=0;left=0;bottom=0;right=0;align=left;spacingLeft=6;overflow=hidden;" vertex="1" parent="5"><mxGeometry x="100" width="120" height="30" as="geometry"/></mxCell><mxCell id="9" value="" style="shape=partialRectangle;collapsible=0;dropTarget=0;pointerEvents=0;fillColor=none;top=0;left=0;bottom=0;right=0;points=[[0,0.5],[1,0.5]];portConstraint=eastwest;" vertex="1" parent="_28B4jXfdEEOSbrgzBtu-15"><mxGeometry y="200" width="220" height="30" as="geometry"/></mxCell><mxCell id="10" value="LocalDateTime" style="shape=partialRectangle;connectable=0;fillColor=none;top=0;left=0;bottom=0;right=0;editable=1;overflow=hidden;" vertex="1" parent="9"><mxGeometry width="100" height="30" as="geometry"/></mxCell><mxCell id="11" value="localDateTime" style="shape=partialRectangle;connectable=0;fillColor=none;top=0;left=0;bottom=0;right=0;align=left;spacingLeft=6;overflow=hidden;" vertex="1" parent="9"><mxGeometry x="100" width="120" height="30" as="geometry"/></mxCell><mxCell id="_28B4jXfdEEOSbrgzBtu-28" value="Photographer" style="shape=table;startSize=30;container=1;collapsible=1;childLayout=tableLayout;fixedRows=1;rowLines=0;fontStyle=1;align=center;resizeLast=1;" parent="1" vertex="1"><mxGeometry x="490" y="440" width="180" height="140" as="geometry"/></mxCell><mxCell id="_28B4jXfdEEOSbrgzBtu-29" value="" style="shape=partialRectangle;collapsible=0;dropTarget=0;pointerEvents=0;fillColor=none;top=0;left=0;bottom=0;right=0;points=[[0,0.5],[1,0.5]];portConstraint=eastwest;" parent="_28B4jXfdEEOSbrgzBtu-28" vertex="1"><mxGeometry y="30" width="180" height="30" as="geometry"/></mxCell><mxCell id="_28B4jXfdEEOSbrgzBtu-30" value="PK" style="shape=partialRectangle;connectable=0;fillColor=none;top=0;left=0;bottom=0;right=0;fontStyle=1;overflow=hidden;" parent="_28B4jXfdEEOSbrgzBtu-29" vertex="1"><mxGeometry width="80" height="30" as="geometry"/></mxCell><mxCell id="_28B4jXfdEEOSbrgzBtu-31" value="id" style="shape=partialRectangle;connectable=0;fillColor=none;top=0;left=0;bottom=0;right=0;align=left;spacingLeft=6;fontStyle=5;overflow=hidden;" parent="_28B4jXfdEEOSbrgzBtu-29" vertex="1"><mxGeometry x="80" width="100" height="30" as="geometry"/></mxCell><mxCell id="_28B4jXfdEEOSbrgzBtu-32" value="" style="shape=partialRectangle;collapsible=0;dropTarget=0;pointerEvents=0;fillColor=none;top=0;left=0;bottom=1;right=0;points=[[0,0.5],[1,0.5]];portConstraint=eastwest;" parent="_28B4jXfdEEOSbrgzBtu-28" vertex="1"><mxGeometry y="60" width="180" height="30" as="geometry"/></mxCell><mxCell id="_28B4jXfdEEOSbrgzBtu-33" value="PK,FK2" style="shape=partialRectangle;connectable=0;fillColor=none;top=0;left=0;bottom=0;right=0;fontStyle=1;overflow=hidden;" parent="_28B4jXfdEEOSbrgzBtu-32" vertex="1"><mxGeometry width="80" height="30" as="geometry"/></mxCell><mxCell id="_28B4jXfdEEOSbrgzBtu-34" value="order_id" style="shape=partialRectangle;connectable=0;fillColor=none;top=0;left=0;bottom=0;right=0;align=left;spacingLeft=6;fontStyle=5;overflow=hidden;" parent="_28B4jXfdEEOSbrgzBtu-32" vertex="1"><mxGeometry x="80" width="100" height="30" as="geometry"/></mxCell><mxCell id="_28B4jXfdEEOSbrgzBtu-35" value="" style="shape=partialRectangle;collapsible=0;dropTarget=0;pointerEvents=0;fillColor=none;top=0;left=0;bottom=0;right=0;points=[[0,0.5],[1,0.5]];portConstraint=eastwest;" parent="_28B4jXfdEEOSbrgzBtu-28" vertex="1"><mxGeometry y="90" width="180" height="30" as="geometry"/></mxCell><mxCell id="_28B4jXfdEEOSbrgzBtu-36" value="ContactData" style="shape=partialRectangle;connectable=0;fillColor=none;top=0;left=0;bottom=0;right=0;editable=1;overflow=hidden;" parent="_28B4jXfdEEOSbrgzBtu-35" vertex="1"><mxGeometry width="80" height="30" as="geometry"/></mxCell><mxCell id="_28B4jXfdEEOSbrgzBtu-37" value="contactData" style="shape=partialRectangle;connectable=0;fillColor=none;top=0;left=0;bottom=0;right=0;align=left;spacingLeft=6;overflow=hidden;" parent="_28B4jXfdEEOSbrgzBtu-35" vertex="1"><mxGeometry x="80" width="100" height="30" as="geometry"/></mxCell></root></mxGraphModel></diagram></mxfile>